<?xml version="1.0" encoding="UTF-8" standalone="no"?><svg xmlns="http://www.w3.org/2000/svg" xmlns:xlink="http://www.w3.org/1999/xlink" contentScriptType="application/ecmascript" contentStyleType="text/css" height="127px" preserveAspectRatio="none" style="width:429px;height:127px;" version="1.1" viewBox="0 0 429 127" width="429px" zoomAndPan="magnify"><defs><filter height="300%" id="f9niip06lb1qq" width="300%" x="-1" y="-1"><feGaussianBlur result="blurOut" stdDeviation="2.0"/><feColorMatrix in="blurOut" result="blurOut2" type="matrix" values="0 0 0 0 0 0 0 0 0 0 0 0 0 0 0 0 0 0 .4 0"/><feOffset dx="4.0" dy="4.0" in="blurOut2" result="blurOut3"/><feBlend in="SourceGraphic" in2="blurOut3" mode="normal"/></filter></defs><g><!--class IntList--><rect fill="#FEFECE" filter="url(#f9niip06lb1qq)" height="48" id="IntList" style="stroke: #A80036; stroke-width: 1.5;" width="65" x="6" y="56"/><ellipse cx="21" cy="72" fill="#B4A7E5" rx="11" ry="11" style="stroke: #A80036; stroke-width: 1.0;"/><path d="M16.9277,67.7651 L16.9277,65.6069 L24.3071,65.6069 L24.3071,67.7651 L21.8418,67.7651 L21.8418,75.8418 L24.3071,75.8418 L24.3071,78 L16.9277,78 L16.9277,75.8418 L19.3931,75.8418 L19.3931,67.7651 Z "/><text fill="#000000" font-family="sans-serif" font-size="12" font-style="italic" lengthAdjust="spacingAndGlyphs" textLength="33" x="35" y="76.5352">IntList</text><line style="stroke: #A80036; stroke-width: 1.5;" x1="7" x2="70" y1="88" y2="88"/><line style="stroke: #A80036; stroke-width: 1.5;" x1="7" x2="70" y1="96" y2="96"/><!--class Zug--><rect fill="#FEFECE" filter="url(#f9niip06lb1qq)" height="60.9551" id="Zug" style="stroke: #A80036; stroke-width: 1.5;" width="99" x="131" y="49.5"/><ellipse cx="166.7" cy="65.5" fill="#ADD1B2" rx="11" ry="11" style="stroke: #A80036; stroke-width: 1.0;"/><path d="M169.6731,71.1431 Q169.0921,71.4419 168.4529,71.5913 Q167.8138,71.7407 167.1082,71.7407 Q164.6014,71.7407 163.2815,70.0889 Q161.9617,68.437 161.9617,65.3159 Q161.9617,62.1865 163.2815,60.5347 Q164.6014,58.8828 167.1082,58.8828 Q167.8138,58.8828 168.4612,59.0322 Q169.1087,59.1816 169.6731,59.4805 L169.6731,62.2031 Q169.0423,61.6221 168.4488,61.3523 Q167.8553,61.0825 167.2244,61.0825 Q165.8797,61.0825 165.1949,62.1492 Q164.5101,63.2158 164.5101,65.3159 Q164.5101,67.4077 165.1949,68.4744 Q165.8797,69.541 167.2244,69.541 Q167.8553,69.541 168.4488,69.2712 Q169.0423,69.0015 169.6731,68.4204 Z "/><text fill="#000000" font-family="sans-serif" font-size="12" lengthAdjust="spacingAndGlyphs" textLength="21" x="185.3" y="70.0352">Zug</text><line style="stroke: #A80036; stroke-width: 1.5;" x1="132" x2="229" y1="81.5" y2="81.5"/><rect fill="none" height="6" style="stroke: #C82930; stroke-width: 1.0;" width="6" x="139" y="90.4775"/><text fill="#000000" font-family="sans-serif" font-size="11" lengthAdjust="spacingAndGlyphs" textLength="73" x="151" y="96.1348">kopf: Waggon</text><line style="stroke: #A80036; stroke-width: 1.5;" x1="132" x2="229" y1="102.4551" y2="102.4551"/><!--class Waggon--><rect fill="#FEFECE" filter="url(#f9niip06lb1qq)" height="73.9102" id="Waggon" style="stroke: #A80036; stroke-width: 1.5;" width="128" x="290" y="43"/><ellipse cx="327.95" cy="59" fill="#ADD1B2" rx="11" ry="11" style="stroke: #A80036; stroke-width: 1.0;"/><path d="M330.9231,64.6431 Q330.3421,64.9419 329.7029,65.0913 Q329.0638,65.2407 328.3582,65.2407 Q325.8514,65.2407 324.5315,63.5889 Q323.2117,61.937 323.2117,58.8159 Q323.2117,55.6865 324.5315,54.0347 Q325.8514,52.3828 328.3582,52.3828 Q329.0638,52.3828 329.7112,52.5322 Q330.3587,52.6816 330.9231,52.9805 L330.9231,55.7031 Q330.2923,55.1221 329.6988,54.8523 Q329.1053,54.5825 328.4744,54.5825 Q327.1297,54.5825 326.4449,55.6492 Q325.7601,56.7158 325.7601,58.8159 Q325.7601,60.9077 326.4449,61.9744 Q327.1297,63.041 328.4744,63.041 Q329.1053,63.041 329.6988,62.7712 Q330.2923,62.5015 330.9231,61.9204 Z "/><text fill="#000000" font-family="sans-serif" font-size="12" lengthAdjust="spacingAndGlyphs" textLength="45" x="347.05" y="63.5352">Waggon</text><line style="stroke: #A80036; stroke-width: 1.5;" x1="291" x2="417" y1="75" y2="75"/><rect fill="none" height="6" style="stroke: #C82930; stroke-width: 1.0;" width="6" x="298" y="83.9775"/><text fill="#000000" font-family="sans-serif" font-size="11" lengthAdjust="spacingAndGlyphs" textLength="57" x="310" y="89.6348">ladung: int</text><rect fill="none" height="6" style="stroke: #C82930; stroke-width: 1.0;" width="6" x="298" y="96.9326"/><text fill="#000000" font-family="sans-serif" font-size="11" lengthAdjust="spacingAndGlyphs" textLength="102" x="310" y="102.5898">naechster: Waggon</text><line style="stroke: #A80036; stroke-width: 1.5;" x1="291" x2="417" y1="108.9102" y2="108.9102"/><!--link IntList to Zug--><path d="M91.1154,80 C104.0992,80 117.9639,80 130.8041,80 " fill="none" id="IntList-Zug" style="stroke: #A80036; stroke-width: 1.0; stroke-dasharray: 7.0,7.0;"/><polygon fill="none" points="91.0777,86.9999,71.0777,80,91.0776,72.9999,91.0777,86.9999" style="stroke: #A80036; stroke-width: 1.0;"/><!--link Zug to Waggon--><path d="M243.6436,80 C258.6361,80 274.6468,80 289.6907,80 " fill="none" id="Zug-Waggon" style="stroke: #A80036; stroke-width: 1.0;"/><polygon fill="#FFFFFF" points="230.2181,80,236.2181,84,242.2181,80,236.2181,76,230.2181,80" style="stroke: #A80036; stroke-width: 1.0;"/><!--link Waggon to Waggon--><path d="M322.2229,29.6987 C324.5112,17.2697 335.1035,8 354,8 C379.1953,8 389.6277,24.4795 385.2973,42.9545 " fill="none" id="Waggon-Waggon" style="stroke: #A80036; stroke-width: 1.0;"/><polygon fill="#FFFFFF" points="322.7027,42.9545,326.483,36.8137,322.2685,30.9624,318.4882,37.1032,322.7027,42.9545" style="stroke: #A80036; stroke-width: 1.0;"/><!--
@startuml klassendiagramm
left to right direction

interface IntList {
	
}

class Zug implements IntList {
	- kopf: Waggon	
}

class Waggon {
	- ladung: int
	- naechster: Waggon
}

Zug o- - Waggon
Waggon o- - Waggon

@enduml

PlantUML version 1.2017.16(Sun Sep 03 12:53:37 CEST 2017)
(GPL source distribution)
Java Runtime: Java(TM) SE Runtime Environment
JVM: Java HotSpot(TM) 64-Bit Server VM
Java Version: 1.8.0_144-b01
Operating System: Mac OS X
OS Version: 10.13.3
Default Encoding: UTF-8
Language: en
Country: US
--></g></svg>