<?xml version="1.0" encoding="UTF-8" standalone="no"?><svg xmlns="http://www.w3.org/2000/svg" xmlns:xlink="http://www.w3.org/1999/xlink" contentScriptType="application/ecmascript" contentStyleType="text/css" height="118px" preserveAspectRatio="none" style="width:280px;height:118px;" version="1.1" viewBox="0 0 280 118" width="280px" zoomAndPan="magnify"><defs><filter height="300%" id="f8jk25lfzcvbn" width="300%" x="-1" y="-1"><feGaussianBlur result="blurOut" stdDeviation="2.0"/><feColorMatrix in="blurOut" result="blurOut2" type="matrix" values="0 0 0 0 0 0 0 0 0 0 0 0 0 0 0 0 0 0 .4 0"/><feOffset dx="4.0" dy="4.0" in="blurOut2" result="blurOut3"/><feBlend in="SourceGraphic" in2="blurOut3" mode="normal"/></filter></defs><g><!--class IntList--><rect fill="#FEFECE" filter="url(#f8jk25lfzcvbn)" height="99.8203" id="IntList" style="stroke: #A80036; stroke-width: 1.5;" width="93" x="6" y="8"/><ellipse cx="33.6" cy="24" fill="#B4A7E5" rx="11" ry="11" style="stroke: #A80036; stroke-width: 1.0;"/><path d="M29.5277,19.7651 L29.5277,17.6069 L36.9071,17.6069 L36.9071,19.7651 L34.4418,19.7651 L34.4418,27.8418 L36.9071,27.8418 L36.9071,30 L29.5277,30 L29.5277,27.8418 L31.9931,27.8418 L31.9931,19.7651 Z "/><text fill="#000000" font-family="sans-serif" font-size="12" font-style="italic" lengthAdjust="spacingAndGlyphs" textLength="33" x="50.4" y="28.5352">IntList</text><line style="stroke: #A80036; stroke-width: 1.5;" x1="7" x2="98" y1="40" y2="40"/><line style="stroke: #A80036; stroke-width: 1.5;" x1="7" x2="98" y1="48" y2="48"/><text fill="#000000" font-family="sans-serif" font-size="11" lengthAdjust="spacingAndGlyphs" textLength="68" x="12" y="62.6348">get(i: int): int</text><text fill="#000000" font-family="sans-serif" font-size="11" lengthAdjust="spacingAndGlyphs" textLength="81" x="12" y="75.5898">put(i: int, v: int)</text><text fill="#000000" font-family="sans-serif" font-size="11" lengthAdjust="spacingAndGlyphs" textLength="54" x="12" y="88.5449">add(v: int)</text><text fill="#000000" font-family="sans-serif" font-size="11" lengthAdjust="spacingAndGlyphs" textLength="71" x="12" y="101.5">remove(i: int)</text><!--class IntListImpl1--><rect fill="#FEFECE" filter="url(#f8jk25lfzcvbn)" height="99.8203" id="IntListImpl1" style="stroke: #A80036; stroke-width: 1.5;" width="110" x="159" y="8"/><ellipse cx="179.4" cy="24" fill="#ADD1B2" rx="11" ry="11" style="stroke: #A80036; stroke-width: 1.0;"/><path d="M182.3731,29.6431 Q181.7921,29.9419 181.1529,30.0913 Q180.5138,30.2407 179.8082,30.2407 Q177.3014,30.2407 175.9815,28.5889 Q174.6617,26.937 174.6617,23.8159 Q174.6617,20.6865 175.9815,19.0347 Q177.3014,17.3828 179.8082,17.3828 Q180.5138,17.3828 181.1612,17.5322 Q181.8087,17.6816 182.3731,17.9805 L182.3731,20.7031 Q181.7423,20.1221 181.1488,19.8523 Q180.5553,19.5825 179.9244,19.5825 Q178.5797,19.5825 177.8949,20.6492 Q177.2101,21.7158 177.2101,23.8159 Q177.2101,25.9077 177.8949,26.9744 Q178.5797,28.041 179.9244,28.041 Q180.5553,28.041 181.1488,27.7712 Q181.7423,27.5015 182.3731,26.9204 Z "/><text fill="#000000" font-family="sans-serif" font-size="12" lengthAdjust="spacingAndGlyphs" textLength="66" x="194.6" y="28.5352">IntListImpl1</text><line style="stroke: #A80036; stroke-width: 1.5;" x1="160" x2="268" y1="40" y2="40"/><line style="stroke: #A80036; stroke-width: 1.5;" x1="160" x2="268" y1="48" y2="48"/><ellipse cx="170" cy="59.9775" fill="#84BE84" rx="3" ry="3" style="stroke: #038048; stroke-width: 1.0;"/><text fill="#000000" font-family="sans-serif" font-size="11" lengthAdjust="spacingAndGlyphs" textLength="68" x="179" y="62.6348">get(i: int): int</text><ellipse cx="170" cy="72.9326" fill="#84BE84" rx="3" ry="3" style="stroke: #038048; stroke-width: 1.0;"/><text fill="#000000" font-family="sans-serif" font-size="11" lengthAdjust="spacingAndGlyphs" textLength="84" x="179" y="75.5898">pub(i: int, v: int)</text><ellipse cx="170" cy="85.8877" fill="#84BE84" rx="3" ry="3" style="stroke: #038048; stroke-width: 1.0;"/><text fill="#000000" font-family="sans-serif" font-size="11" lengthAdjust="spacingAndGlyphs" textLength="54" x="179" y="88.5449">add(v: int)</text><ellipse cx="170" cy="98.8428" fill="#84BE84" rx="3" ry="3" style="stroke: #038048; stroke-width: 1.0;"/><text fill="#000000" font-family="sans-serif" font-size="11" lengthAdjust="spacingAndGlyphs" textLength="71" x="179" y="101.5">remove(i: int)</text><!--link IntList to IntListImpl1--><path d="M119.266,58 C132.4284,58 146.1021,58 158.8302,58 " fill="none" id="IntList-IntListImpl1" style="stroke: #A80036; stroke-width: 1.0; stroke-dasharray: 7.0,7.0;"/><polygon fill="none" points="119.2125,64.9999,99.2125,58,119.2125,50.9999,119.2125,64.9999" style="stroke: #A80036; stroke-width: 1.0;"/><!--
@startuml realisierung

left to right direction

interface IntList {
	get(i: int): int
	put(i: int, v: int)
	add(v: int)
	remove(i: int)
}

class IntListImpl1 implements IntList {
	+get(i: int): int
	+pub(i: int, v: int)
	+add(v: int)
	+remove(i: int)
}

@enduml

PlantUML version 1.2017.16(Sun Sep 03 12:53:37 CEST 2017)
(GPL source distribution)
Java Runtime: Java(TM) SE Runtime Environment
JVM: Java HotSpot(TM) 64-Bit Server VM
Java Version: 1.8.0_144-b01
Operating System: Mac OS X
OS Version: 10.13.3
Default Encoding: UTF-8
Language: en
Country: US
--></g></svg>