<?xml version="1.0" encoding="UTF-8" standalone="no"?><svg xmlns="http://www.w3.org/2000/svg" xmlns:xlink="http://www.w3.org/1999/xlink" contentScriptType="application/ecmascript" contentStyleType="text/css" height="201px" preserveAspectRatio="none" style="width:369px;height:201px;" version="1.1" viewBox="0 0 369 201" width="369px" zoomAndPan="magnify"><defs><filter height="300%" id="fi9qla0bqmde3" width="300%" x="-1" y="-1"><feGaussianBlur result="blurOut" stdDeviation="2.0"/><feColorMatrix in="blurOut" result="blurOut2" type="matrix" values="0 0 0 0 0 0 0 0 0 0 0 0 0 0 0 0 0 0 .4 0"/><feOffset dx="4.0" dy="4.0" in="blurOut2" result="blurOut3"/><feBlend in="SourceGraphic" in2="blurOut3" mode="normal"/></filter></defs><g><!--class Interface--><rect fill="#FEFECE" filter="url(#fi9qla0bqmde3)" height="60.9551" id="Interface" style="stroke: #A80036; stroke-width: 1.5;" width="86" x="24.5" y="8"/><ellipse cx="41.3" cy="24" fill="#B4A7E5" rx="11" ry="11" style="stroke: #A80036; stroke-width: 1.0;"/><path d="M37.2277,19.7651 L37.2277,17.6069 L44.6071,17.6069 L44.6071,19.7651 L42.1418,19.7651 L42.1418,27.8418 L44.6071,27.8418 L44.6071,30 L37.2277,30 L37.2277,27.8418 L39.6931,27.8418 L39.6931,19.7651 Z "/><text fill="#000000" font-family="sans-serif" font-size="12" font-style="italic" lengthAdjust="spacingAndGlyphs" textLength="50" x="55.7" y="28.5352">Interface</text><line style="stroke: #A80036; stroke-width: 1.5;" x1="25.5" x2="109.5" y1="40" y2="40"/><line style="stroke: #A80036; stroke-width: 1.5;" x1="25.5" x2="109.5" y1="48" y2="48"/><ellipse cx="35.5" cy="59.9775" fill="#84BE84" rx="3" ry="3" style="stroke: #038048; stroke-width: 1.0;"/><text fill="#000000" font-family="sans-serif" font-size="11" lengthAdjust="spacingAndGlyphs" textLength="60" x="44.5" y="62.6348">operation()</text><!--class SomeClass--><rect fill="#FEFECE" filter="url(#fi9qla0bqmde3)" height="60.9551" id="SomeClass" style="stroke: #A80036; stroke-width: 1.5;" width="134" x="224.5" y="130"/><ellipse cx="257.95" cy="146" fill="#ADD1B2" rx="11" ry="11" style="stroke: #A80036; stroke-width: 1.0;"/><path d="M260.9231,151.6431 Q260.3421,151.9419 259.7029,152.0913 Q259.0638,152.2407 258.3582,152.2407 Q255.8514,152.2407 254.5315,150.5889 Q253.2117,148.937 253.2117,145.8159 Q253.2117,142.6865 254.5315,141.0347 Q255.8514,139.3828 258.3582,139.3828 Q259.0638,139.3828 259.7112,139.5322 Q260.3587,139.6816 260.9231,139.9805 L260.9231,142.7031 Q260.2923,142.1221 259.6988,141.8523 Q259.1053,141.5825 258.4744,141.5825 Q257.1297,141.5825 256.4449,142.6492 Q255.7601,143.7158 255.7601,145.8159 Q255.7601,147.9077 256.4449,148.9744 Q257.1297,150.041 258.4744,150.041 Q259.1053,150.041 259.6988,149.7712 Q260.2923,149.5015 260.9231,148.9204 Z "/><text fill="#000000" font-family="sans-serif" font-size="12" lengthAdjust="spacingAndGlyphs" textLength="61" x="276.05" y="150.5352">SomeClass</text><line style="stroke: #A80036; stroke-width: 1.5;" x1="225.5" x2="357.5" y1="162" y2="162"/><line style="stroke: #A80036; stroke-width: 1.5;" x1="225.5" x2="357.5" y1="170" y2="170"/><ellipse cx="235.5" cy="181.9775" fill="#84BE84" rx="3" ry="3" style="stroke: #038048; stroke-width: 1.0;"/><text fill="#000000" font-family="sans-serif" font-size="11" lengthAdjust="spacingAndGlyphs" textLength="108" x="244.5" y="184.6348">interface(): Interface</text><!--class MyInterfaceImpl--><rect fill="#FEFECE" filter="url(#fi9qla0bqmde3)" height="60.9551" id="MyInterfaceImpl" style="stroke: #A80036; stroke-width: 1.5;" width="123" x="6" y="130"/><ellipse cx="21" cy="146" fill="#ADD1B2" rx="11" ry="11" style="stroke: #A80036; stroke-width: 1.0;"/><path d="M23.9731,151.6431 Q23.3921,151.9419 22.7529,152.0913 Q22.1138,152.2407 21.4082,152.2407 Q18.9014,152.2407 17.5815,150.5889 Q16.2617,148.937 16.2617,145.8159 Q16.2617,142.6865 17.5815,141.0347 Q18.9014,139.3828 21.4082,139.3828 Q22.1138,139.3828 22.7612,139.5322 Q23.4087,139.6816 23.9731,139.9805 L23.9731,142.7031 Q23.3423,142.1221 22.7488,141.8523 Q22.1553,141.5825 21.5244,141.5825 Q20.1797,141.5825 19.4949,142.6492 Q18.8101,143.7158 18.8101,145.8159 Q18.8101,147.9077 19.4949,148.9744 Q20.1797,150.041 21.5244,150.041 Q22.1553,150.041 22.7488,149.7712 Q23.3423,149.5015 23.9731,148.9204 Z "/><text fill="#000000" font-family="sans-serif" font-size="12" lengthAdjust="spacingAndGlyphs" textLength="91" x="35" y="150.5352">MyInterfaceImpl</text><line style="stroke: #A80036; stroke-width: 1.5;" x1="7" x2="128" y1="162" y2="162"/><line style="stroke: #A80036; stroke-width: 1.5;" x1="7" x2="128" y1="170" y2="170"/><ellipse cx="17" cy="181.9775" fill="#84BE84" rx="3" ry="3" style="stroke: #038048; stroke-width: 1.0;"/><text fill="#000000" font-family="sans-serif" font-size="11" lengthAdjust="spacingAndGlyphs" textLength="60" x="26" y="184.6348">operation()</text><!--link Interface to MyInterfaceImpl--><path d="M67.5,89.7125 C67.5,103.317 67.5,117.5884 67.5,129.7241 " fill="none" id="Interface-MyInterfaceImpl" style="stroke: #A80036; stroke-width: 1.0; stroke-dasharray: 7.0,7.0;"/><polygon fill="none" points="60.5001,89.2858,67.5,69.2858,74.5001,89.2857,60.5001,89.2858" style="stroke: #A80036; stroke-width: 1.0;"/><!--link MyInterfaceImpl to SomeClass--><path d="M134.2548,160.5 C162.672,160.5 195.7605,160.5 224.2333,160.5 " fill="none" id="MyInterfaceImpl-SomeClass" style="stroke: #A80036; stroke-width: 1.0; stroke-dasharray: 7.0,7.0;"/><polygon fill="#A80036" points="129.0053,160.5,138.0053,164.5,134.0053,160.5,138.0053,156.5,129.0053,160.5" style="stroke: #A80036; stroke-width: 1.0;"/><text fill="#000000" font-family="sans-serif" font-size="13" lengthAdjust="spacingAndGlyphs" textLength="59" x="147.25" y="154.0684">«creates»</text><!--
@startuml factory-method

interface Interface {
	+operation()
}

class SomeClass {
	+interface(): Interface
}

class MyInterfaceImpl implements Interface {
	+operation()
}

SomeClass ..left..> MyInterfaceImpl : "<<creates>>"

@enduml

PlantUML version 1.2017.16(Sun Sep 03 12:53:37 CEST 2017)
(GPL source distribution)
Java Runtime: Java(TM) SE Runtime Environment
JVM: Java HotSpot(TM) 64-Bit Server VM
Java Version: 1.8.0_144-b01
Operating System: Mac OS X
OS Version: 10.13.4
Default Encoding: UTF-8
Language: en
Country: US
--></g></svg>