<?xml version="1.0" encoding="UTF-8" standalone="no"?><svg xmlns="http://www.w3.org/2000/svg" xmlns:xlink="http://www.w3.org/1999/xlink" contentScriptType="application/ecmascript" contentStyleType="text/css" height="236px" preserveAspectRatio="none" style="width:403px;height:236px;" version="1.1" viewBox="0 0 403 236" width="403px" zoomAndPan="magnify"><defs><filter height="300%" id="f3uz4dqoridh9" width="300%" x="-1" y="-1"><feGaussianBlur result="blurOut" stdDeviation="2.0"/><feColorMatrix in="blurOut" result="blurOut2" type="matrix" values="0 0 0 0 0 0 0 0 0 0 0 0 0 0 0 0 0 0 .4 0"/><feOffset dx="4.0" dy="4.0" in="blurOut2" result="blurOut3"/><feBlend in="SourceGraphic" in2="blurOut3" mode="normal"/></filter></defs><g><!--class Iterable--><rect fill="#FEFECE" filter="url(#f3uz4dqoridh9)" height="60.9551" id="Iterable" style="stroke: #A80036; stroke-width: 1.5;" width="145" x="6" y="19"/><ellipse cx="46.65" cy="35" fill="#B4A7E5" rx="11" ry="11" style="stroke: #A80036; stroke-width: 1.0;"/><path d="M42.5777,30.7651 L42.5777,28.6069 L49.9571,28.6069 L49.9571,30.7651 L47.4918,30.7651 L47.4918,38.8418 L49.9571,38.8418 L49.9571,41 L42.5777,41 L42.5777,38.8418 L45.0431,38.8418 L45.0431,30.7651 Z "/><text fill="#000000" font-family="sans-serif" font-size="12" font-style="italic" lengthAdjust="spacingAndGlyphs" textLength="44" x="66.35" y="39.5352">Iterable</text><rect fill="#FFFFFF" height="16.1328" style="stroke: #000000; stroke-width: 1.0; stroke-dasharray: 2.0,2.0;" width="10" x="144" y="16"/><text fill="#000000" font-family="sans-serif" font-size="12" font-style="italic" lengthAdjust="spacingAndGlyphs" textLength="8" x="145" y="28.6016">T</text><line style="stroke: #A80036; stroke-width: 1.5;" x1="7" x2="150" y1="51" y2="51"/><line style="stroke: #A80036; stroke-width: 1.5;" x1="7" x2="150" y1="59" y2="59"/><ellipse cx="17" cy="70.9775" fill="#84BE84" rx="3" ry="3" style="stroke: #038048; stroke-width: 1.0;"/><text fill="#000000" font-family="sans-serif" font-size="11" lengthAdjust="spacingAndGlyphs" textLength="119" x="26" y="73.6348">iterator(): Iterator&lt;T&gt;</text><!--class Iterator--><rect fill="#FEFECE" filter="url(#f3uz4dqoridh9)" height="73.9102" id="Iterator" style="stroke: #A80036; stroke-width: 1.5;" width="127" x="262" y="12.5"/><ellipse cx="295.45" cy="28.5" fill="#B4A7E5" rx="11" ry="11" style="stroke: #A80036; stroke-width: 1.0;"/><path d="M291.3777,24.2651 L291.3777,22.1069 L298.7571,22.1069 L298.7571,24.2651 L296.2918,24.2651 L296.2918,32.3418 L298.7571,32.3418 L298.7571,34.5 L291.3777,34.5 L291.3777,32.3418 L293.8431,32.3418 L293.8431,24.2651 Z "/><text fill="#000000" font-family="sans-serif" font-size="12" font-style="italic" lengthAdjust="spacingAndGlyphs" textLength="42" x="313.55" y="33.0352">Iterator</text><rect fill="#FFFFFF" height="16.1328" style="stroke: #000000; stroke-width: 1.0; stroke-dasharray: 2.0,2.0;" width="10" x="382" y="9.5"/><text fill="#000000" font-family="sans-serif" font-size="12" font-style="italic" lengthAdjust="spacingAndGlyphs" textLength="8" x="383" y="22.1016">T</text><line style="stroke: #A80036; stroke-width: 1.5;" x1="263" x2="388" y1="44.5" y2="44.5"/><line style="stroke: #A80036; stroke-width: 1.5;" x1="263" x2="388" y1="52.5" y2="52.5"/><ellipse cx="273" cy="64.4775" fill="#84BE84" rx="3" ry="3" style="stroke: #038048; stroke-width: 1.0;"/><text fill="#000000" font-family="sans-serif" font-size="11" lengthAdjust="spacingAndGlyphs" textLength="101" x="282" y="67.1348">hasNext(): boolean</text><ellipse cx="273" cy="77.4326" fill="#84BE84" rx="3" ry="3" style="stroke: #038048; stroke-width: 1.0;"/><text fill="#000000" font-family="sans-serif" font-size="11" lengthAdjust="spacingAndGlyphs" textLength="45" x="282" y="80.0898">next(): T</text><!--entity Client--><ellipse cx="206.5" cy="18" fill="#FEFECE" filter="url(#f3uz4dqoridh9)" rx="8" ry="8" style="stroke: #A80036; stroke-width: 2.0;"/><path d="M206.5,26 L206.5,53 M193.5,34 L219.5,34 M206.5,53 L193.5,68 M206.5,53 L219.5,68 " fill="#FEFECE" filter="url(#f3uz4dqoridh9)" style="stroke: #A80036; stroke-width: 2.0;"/><text fill="#000000" font-family="sans-serif" font-size="14" lengthAdjust="spacingAndGlyphs" textLength="40" x="186.5" y="88.5352">Client</text><!--class SomeContainer--><rect fill="#FEFECE" filter="url(#f3uz4dqoridh9)" height="60.9551" id="SomeContainer" style="stroke: #A80036; stroke-width: 1.5;" width="145" x="17" y="158.5"/><ellipse cx="38.75" cy="174.5" fill="#ADD1B2" rx="11" ry="11" style="stroke: #A80036; stroke-width: 1.0;"/><path d="M41.7231,180.1431 Q41.1421,180.4419 40.5029,180.5913 Q39.8638,180.7407 39.1582,180.7407 Q36.6514,180.7407 35.3315,179.0889 Q34.0117,177.437 34.0117,174.3159 Q34.0117,171.1865 35.3315,169.5347 Q36.6514,167.8828 39.1582,167.8828 Q39.8638,167.8828 40.5112,168.0322 Q41.1587,168.1816 41.7231,168.4805 L41.7231,171.2031 Q41.0923,170.6221 40.4988,170.3523 Q39.9053,170.0825 39.2744,170.0825 Q37.9297,170.0825 37.2449,171.1492 Q36.5601,172.2158 36.5601,174.3159 Q36.5601,176.4077 37.2449,177.4744 Q37.9297,178.541 39.2744,178.541 Q39.9053,178.541 40.4988,178.2712 Q41.0923,178.0015 41.7231,177.4204 Z "/><text fill="#000000" font-family="sans-serif" font-size="12" lengthAdjust="spacingAndGlyphs" textLength="86" x="54.25" y="179.0352">SomeContainer</text><rect fill="#FFFFFF" height="16.1328" style="stroke: #000000; stroke-width: 1.0; stroke-dasharray: 2.0,2.0;" width="10" x="155" y="155.5"/><text fill="#000000" font-family="sans-serif" font-size="12" font-style="italic" lengthAdjust="spacingAndGlyphs" textLength="8" x="156" y="168.1016">T</text><line style="stroke: #A80036; stroke-width: 1.5;" x1="18" x2="161" y1="190.5" y2="190.5"/><line style="stroke: #A80036; stroke-width: 1.5;" x1="18" x2="161" y1="198.5" y2="198.5"/><ellipse cx="28" cy="210.4775" fill="#84BE84" rx="3" ry="3" style="stroke: #038048; stroke-width: 1.0;"/><text fill="#000000" font-family="sans-serif" font-size="11" lengthAdjust="spacingAndGlyphs" textLength="119" x="37" y="213.1348">iterator(): Iterator&lt;T&gt;</text><!--class SomeIterator--><rect fill="#FEFECE" filter="url(#f3uz4dqoridh9)" height="73.9102" id="SomeIterator" style="stroke: #A80036; stroke-width: 1.5;" width="127" x="260" y="152"/><ellipse cx="279.5" cy="168" fill="#ADD1B2" rx="11" ry="11" style="stroke: #A80036; stroke-width: 1.0;"/><path d="M282.4731,173.6431 Q281.8921,173.9419 281.2529,174.0913 Q280.6138,174.2407 279.9082,174.2407 Q277.4014,174.2407 276.0815,172.5889 Q274.7617,170.937 274.7617,167.8159 Q274.7617,164.6865 276.0815,163.0347 Q277.4014,161.3828 279.9082,161.3828 Q280.6138,161.3828 281.2612,161.5322 Q281.9087,161.6816 282.4731,161.9805 L282.4731,164.7031 Q281.8423,164.1221 281.2488,163.8523 Q280.6553,163.5825 280.0244,163.5825 Q278.6797,163.5825 277.9949,164.6492 Q277.3101,165.7158 277.3101,167.8159 Q277.3101,169.9077 277.9949,170.9744 Q278.6797,172.041 280.0244,172.041 Q280.6553,172.041 281.2488,171.7712 Q281.8423,171.5015 282.4731,170.9204 Z "/><text fill="#000000" font-family="sans-serif" font-size="12" lengthAdjust="spacingAndGlyphs" textLength="73" x="294.5" y="172.5352">SomeIterator</text><rect fill="#FFFFFF" height="16.1328" style="stroke: #000000; stroke-width: 1.0; stroke-dasharray: 2.0,2.0;" width="10" x="380" y="149"/><text fill="#000000" font-family="sans-serif" font-size="12" font-style="italic" lengthAdjust="spacingAndGlyphs" textLength="8" x="381" y="161.6016">T</text><line style="stroke: #A80036; stroke-width: 1.5;" x1="261" x2="386" y1="184" y2="184"/><line style="stroke: #A80036; stroke-width: 1.5;" x1="261" x2="386" y1="192" y2="192"/><ellipse cx="271" cy="203.9775" fill="#84BE84" rx="3" ry="3" style="stroke: #038048; stroke-width: 1.0;"/><text fill="#000000" font-family="sans-serif" font-size="11" lengthAdjust="spacingAndGlyphs" textLength="101" x="280" y="206.6348">hasNext(): boolean</text><ellipse cx="271" cy="216.9326" fill="#84BE84" rx="3" ry="3" style="stroke: #038048; stroke-width: 1.0;"/><text fill="#000000" font-family="sans-serif" font-size="11" lengthAdjust="spacingAndGlyphs" textLength="42" x="280" y="219.5898">next():T</text><!--link Iterable to Client--><path d="M156.6663,49.5 C166.5458,49.5 176.4252,49.5 186.3047,49.5 " fill="none" id="Iterable-Client" style="stroke: #A80036; stroke-width: 1.0; stroke-dasharray: 7.0,7.0;"/><polygon fill="#A80036" points="151.5,49.5,160.5,53.5,156.5,49.5,160.5,45.5,151.5,49.5" style="stroke: #A80036; stroke-width: 1.0;"/><!--link Client to Iterator--><path d="M226.9531,49.5 C236.8966,49.5 246.8401,49.5 256.7836,49.5 " fill="none" id="Client-Iterator" style="stroke: #A80036; stroke-width: 1.0; stroke-dasharray: 7.0,7.0;"/><polygon fill="#A80036" points="261.9835,49.5,252.9835,45.5,256.9835,49.5,252.9835,53.5,261.9835,49.5" style="stroke: #A80036; stroke-width: 1.0;"/><!--link Iterable to SomeContainer--><path d="M82.4934,100.1433 C84.0341,119.6827 85.7458,141.3897 87.0916,158.4575 " fill="none" id="Iterable-SomeContainer" style="stroke: #A80036; stroke-width: 1.0; stroke-dasharray: 7.0,7.0;"/><polygon fill="none" points="75.5079,100.6023,80.914,80.1139,89.4646,99.5017,75.5079,100.6023" style="stroke: #A80036; stroke-width: 1.0;"/><!--link Iterator to SomeIterator--><path d="M324.6823,106.5327 C324.4634,121.8044 324.2324,137.9179 324.0332,151.8098 " fill="none" id="Iterator-SomeIterator" style="stroke: #A80036; stroke-width: 1.0; stroke-dasharray: 7.0,7.0;"/><polygon fill="none" points="317.6832,106.4148,324.9693,86.5172,331.6818,106.6155,317.6832,106.4148" style="stroke: #A80036; stroke-width: 1.0;"/><!--link SomeContainer to SomeIterator--><path d="M162.2564,189 C191.8067,189 225.7729,189 254.8869,189 " fill="none" id="SomeContainer-SomeIterator" style="stroke: #A80036; stroke-width: 1.0; stroke-dasharray: 7.0,7.0;"/><polygon fill="#A80036" points="259.8893,189,250.8893,185,254.8893,189,250.8893,193,259.8893,189" style="stroke: #A80036; stroke-width: 1.0;"/><text fill="#000000" font-family="sans-serif" font-size="13" lengthAdjust="spacingAndGlyphs" textLength="59" x="181.5" y="182.5684">«creates»</text><!--
@startuml iterator
allow_mixing


interface Iterable<T> {
	+iterator(): Iterator<T>
}

interface Iterator<T> {
	+hasNext(): boolean
	+next(): T
}

actor Client
Iterable <..left.. Client
Client ..right..> Iterator

class SomeContainer<T> implements Iterable {
	+iterator(): Iterator<T>
}

class SomeIterator<T> implements Iterator {
	+hasNext(): boolean
	+next():T 
}

SomeContainer ..right..> SomeIterator : "<<creates>>"

@enduml

PlantUML version 1.2017.16(Sun Sep 03 12:53:37 CEST 2017)
(GPL source distribution)
Java Runtime: Java(TM) SE Runtime Environment
JVM: Java HotSpot(TM) 64-Bit Server VM
Java Version: 1.8.0_144-b01
Operating System: Mac OS X
OS Version: 10.13.4
Default Encoding: UTF-8
Language: en
Country: US
--></g></svg>