<?xml version="1.0" encoding="UTF-8" standalone="no"?><svg xmlns="http://www.w3.org/2000/svg" xmlns:xlink="http://www.w3.org/1999/xlink" contentScriptType="application/ecmascript" contentStyleType="text/css" height="102px" preserveAspectRatio="none" style="width:823px;height:102px;" version="1.1" viewBox="0 0 823 102" width="823px" zoomAndPan="magnify"><defs><filter height="300%" id="f163z7hdpyq02v" width="300%" x="-1" y="-1"><feGaussianBlur result="blurOut" stdDeviation="2.0"/><feColorMatrix in="blurOut" result="blurOut2" type="matrix" values="0 0 0 0 0 0 0 0 0 0 0 0 0 0 0 0 0 0 .4 0"/><feOffset dx="4.0" dy="4.0" in="blurOut2" result="blurOut3"/><feBlend in="SourceGraphic" in2="blurOut3" mode="normal"/></filter></defs><g><!--entity User--><ellipse cx="21.5" cy="18" fill="#FEFECE" filter="url(#f163z7hdpyq02v)" rx="8" ry="8" style="stroke: #A80036; stroke-width: 2.0;"/><path d="M21.5,26 L21.5,53 M8.5,34 L34.5,34 M21.5,53 L8.5,68 M21.5,53 L34.5,68 " fill="#FEFECE" filter="url(#f163z7hdpyq02v)" style="stroke: #A80036; stroke-width: 2.0;"/><text fill="#000000" font-family="sans-serif" font-size="14" lengthAdjust="spacingAndGlyphs" textLength="31" x="6" y="88.5352">User</text><rect fill="#FEFECE" filter="url(#f163z7hdpyq02v)" height="37.9102" style="stroke: #A80036; stroke-width: 1.5;" width="52" x="277" y="30.5"/><text fill="#000000" font-family="sans-serif" font-size="12" lengthAdjust="spacingAndGlyphs" textLength="33" x="286.5" y="44.1016">baum</text><line style="stroke: #A80036; stroke-width: 1.5;" x1="278" x2="328" y1="48.6328" y2="48.6328"/><text fill="#000000" font-family="sans-serif" font-size="10" lengthAdjust="spacingAndGlyphs" textLength="40" x="283" y="62.3008">root = 4</text><rect fill="#FEFECE" filter="url(#f163z7hdpyq02v)" height="49.6875" style="stroke: #A80036; stroke-width: 1.5;" width="67" x="417" y="24.5"/><text fill="#000000" font-family="sans-serif" font-size="12" lengthAdjust="spacingAndGlyphs" textLength="8" x="446.5" y="38.1016">4</text><line style="stroke: #A80036; stroke-width: 1.5;" x1="418" x2="483" y1="42.6328" y2="42.6328"/><text fill="#000000" font-family="sans-serif" font-size="10" lengthAdjust="spacingAndGlyphs" textLength="37" x="423" y="56.3008">left = 2</text><text fill="#000000" font-family="sans-serif" font-size="10" lengthAdjust="spacingAndGlyphs" textLength="55" x="423" y="68.0781">right = null</text><rect fill="#FEFECE" filter="url(#f163z7hdpyq02v)" height="49.6875" style="stroke: #A80036; stroke-width: 1.5;" width="61" x="601" y="24.5"/><text fill="#000000" font-family="sans-serif" font-size="12" lengthAdjust="spacingAndGlyphs" textLength="8" x="627.5" y="38.1016">2</text><line style="stroke: #A80036; stroke-width: 1.5;" x1="602" x2="661" y1="42.6328" y2="42.6328"/><text fill="#000000" font-family="sans-serif" font-size="10" lengthAdjust="spacingAndGlyphs" textLength="49" x="607" y="56.3008">left = null</text><text fill="#000000" font-family="sans-serif" font-size="10" lengthAdjust="spacingAndGlyphs" textLength="43" x="607" y="68.0781">right = 3</text><rect fill="#FEFECE" filter="url(#f163z7hdpyq02v)" height="34.1328" style="stroke: #A80036; stroke-width: 1.5;" width="22" x="790" y="32.5"/><text fill="#000000" font-family="sans-serif" font-size="12" lengthAdjust="spacingAndGlyphs" textLength="8" x="797" y="46.1016">3</text><line style="stroke: #A80036; stroke-width: 1.5;" x1="791" x2="811" y1="50.6328" y2="50.6328"/><!--link User to baum--><path d="M37.0356,49.5 C81.6772,49.5 210.9748,49.5 271.3038,49.5 " fill="none" id="User-baum" style="stroke: #A80036; stroke-width: 1.0; stroke-dasharray: 7.0,7.0;"/><polygon fill="#A80036" points="276.5735,49.5,267.5735,45.5,271.5735,49.5,267.5735,53.5,276.5735,49.5" style="stroke: #A80036; stroke-width: 1.0;"/><text fill="#000000" font-family="sans-serif" font-size="13" lengthAdjust="spacingAndGlyphs" textLength="54" x="130" y="46.0684">is.add(3)</text><!--link baum to 4--><path d="M329.0305,49.5 C351.9808,49.5 385.7357,49.5 411.8413,49.5 " fill="none" id="baum-4" style="stroke: #A80036; stroke-width: 1.0;"/><polygon fill="#A80036" points="416.955,49.5,407.955,45.5,411.955,49.5,407.955,53.5,416.955,49.5" style="stroke: #A80036; stroke-width: 1.0;"/><text fill="#000000" font-family="sans-serif" font-size="13" lengthAdjust="spacingAndGlyphs" textLength="26" x="360" y="46.0684">root</text><!--link 4 to 2--><path d="M484.1205,49.5 C515.8534,49.5 563.2767,49.5 595.7034,49.5 " fill="none" id="4-2" style="stroke: #A80036; stroke-width: 1.0;"/><polygon fill="#A80036" points="600.7742,49.5,591.7742,45.5,595.7742,49.5,591.7742,53.5,600.7742,49.5" style="stroke: #A80036; stroke-width: 1.0;"/><text fill="#000000" font-family="sans-serif" font-size="13" lengthAdjust="spacingAndGlyphs" textLength="55" x="515" y="46.0684">kleiner 4</text><!--link 2 to 3--><path d="M662.1952,49.5 C698.1494,49.5 756.3801,49.5 784.6119,49.5 " fill="none" id="2-3" style="stroke: #A80036; stroke-width: 1.0;"/><polygon fill="#A80036" points="789.8428,49.5,780.8428,45.5,784.8428,49.5,780.8428,53.5,789.8428,49.5" style="stroke: #A80036; stroke-width: 1.0;"/><text fill="#000000" font-family="sans-serif" font-size="13" lengthAdjust="spacingAndGlyphs" textLength="66" x="693" y="46.0684">groesser 2</text><!--
@startuml tree-od4
allow_mixing
left to right direction

actor User

object baum {
	root = 4
}

User -..-> baum : "is.add(3)"

object 4 {
	left = 2
	right = null
}

baum - -> 4 : root

object 2 {
	left = null
	right = 3
}

4 - -> 2 : "kleiner 4"

object 3

2 - -> 3 : "groesser 2"


@enduml

PlantUML version 1.2017.16(Sun Sep 03 12:53:37 CEST 2017)
(GPL source distribution)
Java Runtime: Java(TM) SE Runtime Environment
JVM: Java HotSpot(TM) 64-Bit Server VM
Java Version: 1.8.0_144-b01
Operating System: Mac OS X
OS Version: 10.13.3
Default Encoding: UTF-8
Language: en
Country: US
--></g></svg>