<?xml version="1.0" encoding="UTF-8" standalone="no"?><svg xmlns="http://www.w3.org/2000/svg" xmlns:xlink="http://www.w3.org/1999/xlink" contentScriptType="application/ecmascript" contentStyleType="text/css" height="490px" preserveAspectRatio="none" style="width:356px;height:490px;" version="1.1" viewBox="0 0 356 490" width="356px" zoomAndPan="magnify"><defs><filter height="300%" id="f150h5q3dv3hba" width="300%" x="-1" y="-1"><feGaussianBlur result="blurOut" stdDeviation="2.0"/><feColorMatrix in="blurOut" result="blurOut2" type="matrix" values="0 0 0 0 0 0 0 0 0 0 0 0 0 0 0 0 0 0 .4 0"/><feOffset dx="4.0" dy="4.0" in="blurOut2" result="blurOut3"/><feBlend in="SourceGraphic" in2="blurOut3" mode="normal"/></filter></defs><g><!--class Steuersatz--><rect fill="#FEFECE" filter="url(#f150h5q3dv3hba)" height="60.9551" id="Steuersatz" style="stroke: #A80036; stroke-width: 1.5;" width="182" x="6" y="8"/><ellipse cx="62.75" cy="24" fill="#ADD1B2" rx="11" ry="11" style="stroke: #A80036; stroke-width: 1.0;"/><path d="M65.7231,29.6431 Q65.1421,29.9419 64.5029,30.0913 Q63.8638,30.2407 63.1582,30.2407 Q60.6514,30.2407 59.3315,28.5889 Q58.0117,26.937 58.0117,23.8159 Q58.0117,20.6865 59.3315,19.0347 Q60.6514,17.3828 63.1582,17.3828 Q63.8638,17.3828 64.5112,17.5322 Q65.1587,17.6816 65.7231,17.9805 L65.7231,20.7031 Q65.0923,20.1221 64.4988,19.8523 Q63.9053,19.5825 63.2744,19.5825 Q61.9297,19.5825 61.2449,20.6492 Q60.5601,21.7158 60.5601,23.8159 Q60.5601,25.9077 61.2449,26.9744 Q61.9297,28.041 63.2744,28.041 Q63.9053,28.041 64.4988,27.7712 Q65.0923,27.5015 65.7231,26.9204 Z "/><text fill="#000000" font-family="sans-serif" font-size="12" lengthAdjust="spacingAndGlyphs" textLength="60" x="83.25" y="28.5352">Steuersatz</text><line style="stroke: #A80036; stroke-width: 1.5;" x1="7" x2="187" y1="40" y2="40"/><line style="stroke: #A80036; stroke-width: 1.5;" x1="7" x2="187" y1="48" y2="48"/><ellipse cx="17" cy="59.9775" fill="#84BE84" rx="3" ry="3" style="stroke: #038048; stroke-width: 1.0;"/><text fill="#000000" font-family="sans-serif" font-size="11" lengthAdjust="spacingAndGlyphs" textLength="156" x="26" y="62.6348">static double steuersatz(int i)</text><!--class Ware--><rect fill="#FEFECE" filter="url(#f150h5q3dv3hba)" height="151.6406" id="Ware" style="stroke: #A80036; stroke-width: 1.5;" width="288" x="28" y="328"/><ellipse cx="153.25" cy="344" fill="#ADD1B2" rx="11" ry="11" style="stroke: #A80036; stroke-width: 1.0;"/><path d="M156.2231,349.6431 Q155.6421,349.9419 155.0029,350.0913 Q154.3638,350.2407 153.6582,350.2407 Q151.1514,350.2407 149.8315,348.5889 Q148.5117,346.937 148.5117,343.8159 Q148.5117,340.6865 149.8315,339.0347 Q151.1514,337.3828 153.6582,337.3828 Q154.3638,337.3828 155.0112,337.5322 Q155.6587,337.6816 156.2231,337.9805 L156.2231,340.7031 Q155.5923,340.1221 154.9988,339.8523 Q154.4053,339.5825 153.7744,339.5825 Q152.4297,339.5825 151.7449,340.6492 Q151.0601,341.7158 151.0601,343.8159 Q151.0601,345.9077 151.7449,346.9744 Q152.4297,348.041 153.7744,348.041 Q154.4053,348.041 154.9988,347.7712 Q155.5923,347.5015 156.2231,346.9204 Z "/><text fill="#000000" font-family="sans-serif" font-size="12" lengthAdjust="spacingAndGlyphs" textLength="29" x="173.75" y="348.5352">Ware</text><line style="stroke: #A80036; stroke-width: 1.5;" x1="29" x2="315" y1="360" y2="360"/><rect fill="none" height="6" style="stroke: #C82930; stroke-width: 1.0;" width="6" x="36" y="368.9775"/><text fill="#000000" font-family="sans-serif" font-size="11" lengthAdjust="spacingAndGlyphs" textLength="64" x="48" y="374.6348">String name</text><rect fill="none" height="6" style="stroke: #C82930; stroke-width: 1.0;" width="6" x="36" y="381.9326"/><text fill="#000000" font-family="sans-serif" font-size="11" lengthAdjust="spacingAndGlyphs" textLength="79" x="48" y="387.5898">int priceInCent</text><rect fill="none" height="6" style="stroke: #C82930; stroke-width: 1.0;" width="6" x="36" y="394.8877"/><text fill="#000000" font-family="sans-serif" font-size="11" lengthAdjust="spacingAndGlyphs" textLength="73" x="48" y="400.5449">int steuersatz</text><line style="stroke: #A80036; stroke-width: 1.5;" x1="29" x2="315" y1="406.8652" y2="406.8652"/><ellipse cx="39" cy="418.8428" fill="#84BE84" rx="3" ry="3" style="stroke: #038048; stroke-width: 1.0;"/><text fill="#000000" font-family="sans-serif" font-size="11" lengthAdjust="spacingAndGlyphs" textLength="262" x="48" y="421.5">Ware(String name, int priceInCent, int steuersatz)</text><ellipse cx="39" cy="431.7979" fill="#84BE84" rx="3" ry="3" style="stroke: #038048; stroke-width: 1.0;"/><text fill="#000000" font-family="sans-serif" font-size="11" lengthAdjust="spacingAndGlyphs" textLength="52" x="48" y="434.4551">int price()</text><ellipse cx="39" cy="444.7529" fill="#84BE84" rx="3" ry="3" style="stroke: #038048; stroke-width: 1.0;"/><text fill="#000000" font-family="sans-serif" font-size="11" lengthAdjust="spacingAndGlyphs" textLength="85" x="48" y="447.4102">int priceTaxed()</text><ellipse cx="39" cy="457.708" fill="#84BE84" rx="3" ry="3" style="stroke: #038048; stroke-width: 1.0;"/><text fill="#000000" font-family="sans-serif" font-size="11" lengthAdjust="spacingAndGlyphs" textLength="42" x="48" y="460.3652">int tax()</text><ellipse cx="39" cy="470.6631" fill="#84BE84" rx="3" ry="3" style="stroke: #038048; stroke-width: 1.0;"/><text fill="#000000" font-family="sans-serif" font-size="11" lengthAdjust="spacingAndGlyphs" textLength="86" x="48" y="473.3203">String toString()</text><!--class Warenkorb--><rect fill="#FEFECE" filter="url(#f150h5q3dv3hba)" height="138.6855" id="Warenkorb" style="stroke: #A80036; stroke-width: 1.5;" width="195" x="150.5" y="129"/><ellipse cx="212.25" cy="145" fill="#ADD1B2" rx="11" ry="11" style="stroke: #A80036; stroke-width: 1.0;"/><path d="M215.2231,150.6431 Q214.6421,150.9419 214.0029,151.0913 Q213.3638,151.2407 212.6582,151.2407 Q210.1514,151.2407 208.8315,149.5889 Q207.5117,147.937 207.5117,144.8159 Q207.5117,141.6865 208.8315,140.0347 Q210.1514,138.3828 212.6582,138.3828 Q213.3638,138.3828 214.0112,138.5322 Q214.6587,138.6816 215.2231,138.9805 L215.2231,141.7031 Q214.5923,141.1221 213.9988,140.8523 Q213.4053,140.5825 212.7744,140.5825 Q211.4297,140.5825 210.7449,141.6492 Q210.0601,142.7158 210.0601,144.8159 Q210.0601,146.9077 210.7449,147.9744 Q211.4297,149.041 212.7744,149.041 Q213.4053,149.041 213.9988,148.7712 Q214.5923,148.5015 215.2231,147.9204 Z "/><text fill="#000000" font-family="sans-serif" font-size="12" lengthAdjust="spacingAndGlyphs" textLength="63" x="232.75" y="149.5352">Warenkorb</text><line style="stroke: #A80036; stroke-width: 1.5;" x1="151.5" x2="344.5" y1="161" y2="161"/><text fill="#000000" font-family="sans-serif" font-size="11" lengthAdjust="spacingAndGlyphs" textLength="112" x="156.5" y="175.6348">private Ware[] waren;</text><line style="stroke: #A80036; stroke-width: 1.5;" x1="151.5" x2="344.5" y1="181.9551" y2="181.9551"/><ellipse cx="161.5" cy="193.9326" fill="#84BE84" rx="3" ry="3" style="stroke: #038048; stroke-width: 1.0;"/><text fill="#000000" font-family="sans-serif" font-size="11" lengthAdjust="spacingAndGlyphs" textLength="135" x="170.5" y="196.5898">Warenkorb(Ware[] waren)</text><ellipse cx="161.5" cy="206.8877" fill="#84BE84" rx="3" ry="3" style="stroke: #038048; stroke-width: 1.0;"/><text fill="#000000" font-family="sans-serif" font-size="11" lengthAdjust="spacingAndGlyphs" textLength="52" x="170.5" y="209.5449">int price()</text><ellipse cx="161.5" cy="219.8428" fill="#84BE84" rx="3" ry="3" style="stroke: #038048; stroke-width: 1.0;"/><text fill="#000000" font-family="sans-serif" font-size="11" lengthAdjust="spacingAndGlyphs" textLength="42" x="170.5" y="222.5">int tax()</text><ellipse cx="161.5" cy="232.7979" fill="#84BE84" rx="3" ry="3" style="stroke: #038048; stroke-width: 1.0;"/><text fill="#000000" font-family="sans-serif" font-size="11" lengthAdjust="spacingAndGlyphs" textLength="85" x="170.5" y="235.4551">int priceTaxed()</text><ellipse cx="161.5" cy="245.7529" fill="#84BE84" rx="3" ry="3" style="stroke: #038048; stroke-width: 1.0;"/><text fill="#000000" font-family="sans-serif" font-size="11" lengthAdjust="spacingAndGlyphs" textLength="169" x="170.5" y="248.4102">boolean qualifiesFreeShipping()</text><ellipse cx="161.5" cy="258.708" fill="#84BE84" rx="3" ry="3" style="stroke: #038048; stroke-width: 1.0;"/><text fill="#000000" font-family="sans-serif" font-size="11" lengthAdjust="spacingAndGlyphs" textLength="86" x="170.5" y="261.3652">String toString()</text><!--link Steuersatz to Ware--><path d="M100.5847,69.1658 C106.0309,113.3902 117.4264,197.5074 133,268 C137.3185,287.5473 142.8401,308.4324 148.361,327.8224 " fill="none" id="Steuersatz-Ware" style="stroke: #A80036; stroke-width: 1.0; stroke-dasharray: 7.0,7.0;"/><!--link Warenkorb to Ware--><path d="M217.6987,280.4331 C211.9191,296.0608 205.8915,312.3591 200.1815,327.7988 " fill="none" id="Warenkorb-Ware" style="stroke: #A80036; stroke-width: 1.0;"/><polygon fill="#A80036" points="222.2699,268.0729,216.437,272.3128,218.1074,279.3278,223.9403,275.0879,222.2699,268.0729" style="stroke: #A80036; stroke-width: 1.0;"/><!--
@startuml

class Steuersatz {
	+static double steuersatz(int i)
}

class Ware {
	-String name
	-int priceInCent
	-int steuersatz

	+Ware(String name, int priceInCent, int steuersatz)
	+int price()
	+int priceTaxed()
	+int tax()
	+String toString()
}

class Warenkorb {
	private Ware[] waren;
	
	+Warenkorb(Ware[] waren)
	+int price()
	+int tax()
	+int priceTaxed()
	+boolean qualifiesFreeShipping()
	+String toString()
}

Steuersatz ... Ware
Warenkorb *- - Ware

@enduml

PlantUML version 1.2017.16(Sun Sep 03 12:53:37 CEST 2017)
(GPL source distribution)
Java Runtime: Java(TM) SE Runtime Environment
JVM: Java HotSpot(TM) 64-Bit Server VM
Java Version: 1.8.0_144-b01
Operating System: Mac OS X
OS Version: 10.13.3
Default Encoding: UTF-8
Language: en
Country: US
--></g></svg>